#N canvas 1326 262 450 547 12;
#X obj 132 262 metro 1000;
#X obj 130 105 tgl 15 0 empty empty empty 17 7 0 10 -262144 -1 -1 0
1;
#X floatatom 199 139 5 0 0 0 - - -;
#X obj 199 162 / 60;
#X obj 199 210 /;
#X floatatom 199 234 5 0 0 0 - - -;
#X obj 199 186 swap 1000;
#X obj 47 331 osc~ 440;
#X obj 49 517 dac~;
#X obj 48 479 clip~ -1 1;
#X obj 48 448 *~ 0.2;
#X obj 48 419 *~;
#X obj 66 391 vline~;
#X obj 47 187 f 0;
#X obj 78 187 + 1;
#X obj 47 211 mod 4;
#X floatatom 47 235 5 0 0 0 - - -;
#X obj 47 258 sel 0;
#X msg 66 360 1 2 \, 0 50 2;
#X msg 83 282 220;
#X msg 47 282 440;
#X msg 88 152 0;
#X obj 130 125 t f b;
#X connect 0 0 18 0;
#X connect 0 0 13 0;
#X connect 1 0 22 0;
#X connect 2 0 3 0;
#X connect 3 0 6 0;
#X connect 4 0 5 0;
#X connect 5 0 0 1;
#X connect 6 0 4 0;
#X connect 6 1 4 1;
#X connect 7 0 11 0;
#X connect 9 0 8 0;
#X connect 9 0 8 1;
#X connect 10 0 9 0;
#X connect 11 0 10 0;
#X connect 12 0 11 1;
#X connect 13 0 14 0;
#X connect 13 0 15 0;
#X connect 14 0 13 1;
#X connect 15 0 16 0;
#X connect 16 0 17 0;
#X connect 17 0 20 0;
#X connect 17 1 19 0;
#X connect 18 0 12 0;
#X connect 19 0 7 0;
#X connect 20 0 7 0;
#X connect 21 0 13 1;
#X connect 22 0 0 0;
#X connect 22 1 21 0;
