#N struct 1025-playhead-template float x float y;
#N struct 1025-array float x float y float x1 float y1 float x2 float
y2 array seq-array 1025-connector-template;
#N struct 1025-connector-template float x float y;
#N canvas 41 38 820 549 12;
#N canvas 43 154 455 147 \$0-connector-template 0;
#X obj 24 15 struct \$0-connector-template float x float y;
#X obj 24 69 r \$0-show-coordinates;
#X obj 214 103 drawnumber y 0 -20 0 y:;
#X obj 24 103 drawnumber x 0 -10 0 x:;
#X obj 24 44 filledpolygon 0 0 0 -5 0 0 5 5 0 0 -5;
#X connect 1 0 2 0;
#X connect 1 0 3 0;
#X restore 616 94 pd \$0-connector-template;
#N canvas 377 347 578 501 setup-pointers 0;
#X obj 113 202 pointer;
#X obj 105 43 symbol pd-\$0-data;
#X obj 60 225 pack s p;
#X obj 60 249 list trim;
#X obj 60 273 route data playhead;
#X obj 60 457 outlet;
#X obj 125 457 outlet;
#X obj 105 14 inlet;
#X msg 137 95 traverse \$1;
#X obj 105 67 t b a;
#X obj 40 151 unpack s s;
#X msg 107 173 \$1;
#X text 161 254 Route out pointers for data and playhead;
#X msg 40 126 playhead next \, data next;
#X obj 351 405 element \$0-array seq-array;
#X obj 60 297 t a a;
#X msg 351 383 0;
#X obj 151 429 set \$0-connector-template x y;
#X obj 328 346 t b b a;
#X msg 151 372 128;
#X obj 151 396 t f f;
#X connect 0 0 2 1;
#X connect 1 0 9 0;
#X connect 2 0 3 0;
#X connect 3 0 4 0;
#X connect 4 0 15 0;
#X connect 4 1 6 0;
#X connect 7 0 1 0;
#X connect 8 0 0 0;
#X connect 9 0 13 0;
#X connect 9 1 8 0;
#X connect 10 0 2 0;
#X connect 10 1 11 0;
#X connect 11 0 0 0;
#X connect 13 0 10 0;
#X connect 14 0 17 2;
#X connect 15 0 5 0;
#X connect 15 1 18 0;
#X connect 16 0 14 0;
#X connect 18 0 19 0;
#X connect 18 1 16 0;
#X connect 18 2 14 1;
#X connect 19 0 20 0;
#X connect 20 0 17 0;
#X connect 20 1 17 1;
#X restore 452 142 pd setup-pointers;
#X obj 371 53 loadbang;
#N canvas 840 393 396 409 handle-playhead 0;
#X obj 71 279 set \$0-playhead-template x y;
#X obj 48 189 line;
#X obj 48 141 pack f 0 500;
#X msg 48 165 \$2 \, \$3 \$1;
#X obj 148 189 line;
#X obj 148 141 pack f 0 500;
#X msg 148 165 \$2 \, \$3 \$1;
#X obj 48 97 t a a;
#X obj 48 41 inlet;
#X obj 48 65 unpack f f f f f;
#X obj 264 40 inlet pointer;
#X obj 48 314 s \$0-x-out;
#X obj 148 314 s \$0-y-out;
#X obj 94 360 s \$0-bang-extra-line;
#X obj 48 213 t f f b;
#X obj 148 213 t f f b;
#X connect 1 0 14 0;
#X connect 2 0 3 0;
#X connect 3 0 1 0;
#X connect 4 0 15 0;
#X connect 5 0 6 0;
#X connect 6 0 4 0;
#X connect 7 0 2 0;
#X connect 7 1 5 0;
#X connect 8 0 9 0;
#X connect 9 0 7 0;
#X connect 9 1 2 1;
#X connect 9 2 5 1;
#X connect 9 3 2 2;
#X connect 9 4 5 2;
#X connect 10 0 0 2;
#X connect 14 0 11 0;
#X connect 14 1 0 0;
#X connect 14 2 13 0;
#X connect 15 0 12 0;
#X connect 15 1 0 1;
#X restore 403 238 pd handle-playhead;
#N canvas 64 48 543 810 sequencer 0;
#X obj 15 336 get \$0-connector-template x y;
#X obj 255 335 get \$0-connector-template x y;
#X obj 15 476 expr sqrt(pow($f3 - $f1 \, 2)+ pow($f4 - $f2 \, 2));
#N canvas 79 177 371 434 counter 0;
#X floatatom 42 197 5 0 0 0 - - -;
#X obj 42 150 f 0;
#X obj 77 150 + 1;
#X msg 180 197 0;
#X obj 42 118 spigot;
#X obj 88 197 + 1;
#X obj 180 171 sel 1;
#X floatatom 162 352 5 0 0 0 - - -;
#X obj 42 66 t f f, f 7;
#X obj 42 92 sel 1;
#X obj 42 36 inlet;
#X obj 239 36 inlet num-steps;
#X obj 121 35 inlet next;
#X obj 121 59 route bang;
#X obj 162 328 f;
#X text 231 175 If on last step \,;
#X text 231 195 Loop around;
#X obj 180 148 >= 0;
#X obj 205 119 - 1;
#X obj 42 220 t f b;
#X obj 42 174 t f f f;
#X obj 42 376 outlet current;
#X obj 162 376 outlet next;
#X connect 0 0 19 0;
#X connect 1 0 2 0;
#X connect 1 0 20 0;
#X connect 2 0 1 1;
#X connect 3 0 1 1;
#X connect 3 0 14 1;
#X connect 4 0 1 0;
#X connect 5 0 14 1;
#X connect 6 0 3 0;
#X connect 7 0 22 0;
#X connect 8 0 9 0;
#X connect 8 1 4 1;
#X connect 9 0 4 0;
#X connect 10 0 8 0;
#X connect 11 0 18 0;
#X connect 12 0 13 0;
#X connect 13 0 4 0;
#X connect 14 0 7 0;
#X connect 17 0 6 0;
#X connect 18 0 17 1;
#X connect 19 0 21 0;
#X connect 19 1 14 0;
#X connect 20 0 0 0;
#X connect 20 1 17 0;
#X connect 20 2 5 0;
#X restore 15 257 pd counter;
#X obj 15 655 * 1;
#X obj 15 15 inlet;
#X obj 33 499 r \$0-timescale;
#X obj 33 524 sel 0;
#X msg 33 548 1;
#X obj 15 749 outlet;
#X obj 15 408 pack f f f f;
#X obj 15 432 t a a;
#X obj 15 712 list;
#X obj 15 679 t f f;
#X obj 222 13 inlet pointer;
#X text 179 545 c = a + b;
#X text 185 534 2;
#X text 213 534 2;
#X text 240 534 2;
#X text 303 536 /;
#X text 310 525 ________________________;
#X text 265 546 =;
#X text 184 506 Distance formula;
#X text 315 544 (x2 - x1) + (y2 - y1);
#X text 298 546 V;
#X obj 222 69 t a a;
#X obj 222 37 pointer;
#X obj 67 726 del;
#X obj 67 750 s \$0-trig;
#X obj 15 312 element \$0-array seq-array;
#X obj 255 311 element \$0-array seq-array;
#X obj 254 145 getsize \$0-array seq-array;
#X obj 48 41 r \$0-trig;
#N canvas 85 107 555 292 handle-trig 0;
#X obj 54 240 outlet;
#X obj 155 69 > 1;
#X obj 187 119 == 0;
#X obj 155 95 t f f;
#X obj 134 184 del 1;
#X obj 54 63 t b b;
#X obj 134 149 spigot 1;
#X obj 54 149 spigot 0;
#X text 193 183 If array is only one element \, delay bang by 1;
#X obj 155 39 inlet array-size;
#X obj 54 39 inlet trig;
#X text 193 203 Otherwise \, pd will lag quite a bit;
#X connect 1 0 3 0;
#X connect 2 0 6 1;
#X connect 3 0 7 1;
#X connect 3 1 2 0;
#X connect 4 0 0 0;
#X connect 5 0 7 0;
#X connect 5 1 6 0;
#X connect 6 0 4 0;
#X connect 7 0 0 0;
#X connect 9 0 1 0;
#X connect 10 0 5 0;
#X restore 48 207 pd handle-trig;
#X obj 48 65 t b b;
#N canvas 52 126 629 700 connect-ends 0;
#X obj 60 103 inlet pointer;
#X obj 92 420 get \$0-connector-template x y;
#X obj 92 396 element \$0-array seq-array;
#X obj 92 343 t b f;
#X msg 92 367 0;
#X obj 349 420 get \$0-connector-template x y;
#X obj 349 396 element \$0-array seq-array;
#X obj 124 656 set \$0-array x1 y1 x2 y2;
#X obj 60 288 getsize \$0-array seq-array;
#X obj 60 264 pointer;
#X obj 297 103 r \$0-bang-extra-line;
#X obj 297 220 spigot 1;
#X obj 320 136 t b b;
#X msg 319 191 0, f 2;
#X msg 350 191 1, f 2;
#X text 63 14 Typically a "plot" does not connect the start and end
points;
#X text 63 43 This patch does just that. However \, we need to update
the new line periodically so that it looks like it's always connected
;
#X obj 350 164 del 10;
#X obj 92 444 change;
#X obj 292 444 change;
#X obj 349 444 change;
#X obj 549 444 change;
#X obj 292 468 t b f;
#X obj 349 468 t b f;
#X obj 549 468 t b f;
#X obj 74 567 f;
#X msg 92 541 1, f 1;
#X msg 24 531 0, f 1;
#X obj 92 468 t b f;
#X obj 60 312 t b f;
#X obj 24 397 t b b;
#X obj 74 591 sel 1;
#X text 412 161 <-- Wait 10ms between bangs;
#X obj 60 127 t a a;
#X text 132 590 <-- Only update if values have changed;
#X text 160 610 This is to present Z fighting \, since setting the
values causes the plot to draw on top of the playhead.;
#X connect 0 0 33 0;
#X connect 1 0 18 0;
#X connect 1 1 19 0;
#X connect 2 0 1 0;
#X connect 3 0 4 0;
#X connect 3 1 6 0;
#X connect 4 0 2 0;
#X connect 5 0 20 0;
#X connect 5 1 21 0;
#X connect 6 0 5 0;
#X connect 8 0 29 0;
#X connect 9 0 8 0;
#X connect 10 0 11 0;
#X connect 11 0 12 0;
#X connect 11 0 9 0;
#X connect 12 0 17 0;
#X connect 12 1 13 0;
#X connect 13 0 11 1;
#X connect 14 0 11 1;
#X connect 17 0 14 0;
#X connect 18 0 28 0;
#X connect 19 0 22 0;
#X connect 20 0 23 0;
#X connect 21 0 24 0;
#X connect 22 0 26 0;
#X connect 22 1 7 1;
#X connect 23 0 26 0;
#X connect 23 1 7 2;
#X connect 24 0 26 0;
#X connect 24 1 7 3;
#X connect 25 0 31 0;
#X connect 26 0 25 1;
#X connect 27 0 25 1;
#X connect 28 0 26 0;
#X connect 28 1 7 0;
#X connect 29 0 30 0;
#X connect 29 1 3 0;
#X connect 30 0 27 0;
#X connect 30 1 25 0;
#X connect 31 0 7 0;
#X connect 33 0 9 0;
#X connect 33 1 2 1;
#X connect 33 1 6 1;
#X connect 33 1 7 4;
#X restore 232 113 pd connect-ends;
#X obj 254 174 t f f;
#X obj 67 680 sel 0;
#X msg 67 704 1;
#X obj 33 573 swap 1;
#X obj 33 597 /;
#X obj 33 621 * 10;
#X connect 0 0 10 0;
#X connect 0 1 10 1;
#X connect 1 0 10 2;
#X connect 1 1 10 3;
#X connect 2 0 4 0;
#X connect 3 0 29 0;
#X connect 3 1 30 0;
#X connect 4 0 13 0;
#X connect 5 0 3 0;
#X connect 6 0 7 0;
#X connect 7 0 8 0;
#X connect 7 1 39 0;
#X connect 8 0 39 0;
#X connect 10 0 11 0;
#X connect 11 0 2 0;
#X connect 11 1 12 1;
#X connect 12 0 9 0;
#X connect 13 0 12 0;
#X connect 13 1 37 0;
#X connect 14 0 26 0;
#X connect 25 0 29 1;
#X connect 25 0 30 1;
#X connect 25 0 35 0;
#X connect 25 1 31 0;
#X connect 26 0 25 0;
#X connect 27 0 28 0;
#X connect 29 0 0 0;
#X connect 30 0 1 0;
#X connect 31 0 36 0;
#X connect 32 0 34 0;
#X connect 33 0 3 1;
#X connect 34 0 33 0;
#X connect 34 1 26 0;
#X connect 36 0 33 1;
#X connect 36 1 3 2;
#X connect 37 0 38 0;
#X connect 37 1 27 0;
#X connect 38 0 27 0;
#X connect 39 0 40 0;
#X connect 39 1 40 1;
#X connect 40 0 41 0;
#X connect 41 0 4 1;
#X restore 371 187 pd sequencer;
#N canvas 83 171 394 402 \$0-spawn-structs 0;
#X msg 218 142 traverse \$1 \, bang;
#X obj 218 171 pointer;
#X obj 51 220 unpack f f;
#X msg 51 191 0 0;
#X obj 218 113 symbol pd-\$0-data;
#X obj 28 161 t b b b;
#X msg 60 112 \; pd-\$1-data clear;
#X obj 60 90 f \$0;
#X obj 28 60 t b b;
#X text 72 39 Clear canvas and append new objects;
#X obj 51 249 append \$0-array x y;
#X obj 28 16 inlet;
#X obj 28 310 unpack f f;
#X msg 28 281 0 0;
#X obj 28 339 append \$0-playhead-template x y;
#X obj 218 195 t a a;
#X connect 0 0 1 0;
#X connect 1 0 15 0;
#X connect 2 0 10 0;
#X connect 2 1 10 1;
#X connect 3 0 2 0;
#X connect 4 0 0 0;
#X connect 5 0 13 0;
#X connect 5 1 3 0;
#X connect 5 2 4 0;
#X connect 7 0 6 0;
#X connect 8 0 5 0;
#X connect 8 1 7 0;
#X connect 11 0 8 0;
#X connect 12 0 14 0;
#X connect 12 1 14 1;
#X connect 13 0 12 0;
#X connect 15 0 10 2;
#X connect 15 1 14 2;
#X restore 585 142 pd \$0-spawn-structs;
#X obj 226 456 outlet;
#X obj 226 426 r \$0-data-out;
#X obj 514 95 t b b;
#X obj 16 427 r \$0-x-out;
#X obj 116 427 r \$0-y-out;
#X obj 16 456 outlet x;
#X obj 116 456 outlet y;
#X obj 371 211 t a a;
#X obj 371 435 s \$0-data-out;
#X msg 371 296 distance \$1;
#X obj 397 320 pack f f;
#X obj 472 372 pack f f;
#X msg 397 349 start-point \$1 \$2;
#X msg 472 399 end-point \$1 \$2;
#X text 17 503 CTRL + CLICK to add more points when "+" symbol appears
;
#X text 17 483 HELP:;
#X text 17 523 Click the RESET button above to clear the array;
#X obj 11 266 cnv 15 254 59 empty empty empty 20 12 0 14 -228856 -66577
0;
#X obj 588 274 tgl 20 0 empty empty Show_coords 25 10 0 12 -262144
-1 -1 0 1;
#X obj 588 317 s \$0-show-coordinates;
#X floatatom 16 277 5 0 10000 1 Speed - -;
#X obj 16 397 s \$0-timescale;
#X msg 371 119 1;
#X obj 371 87 t b b;
#X obj 588 216 loadbang;
#X msg 588 240 0;
#X obj 10 10 cnv 15 256 256 empty empty plot-seq 10 12 0 14 -191407
-99865 0;
#N canvas 1253 50 462 324 \$0-data 0;
#X scalar 1025-playhead-template 68.5569 90.5493 \;;
#X scalar 1025-array 0 0 61 84 226 72 \; 61 84 \; 181 188 \; 226 72
\; \;;
#X coords 0 256 256 0 256 256 2 100 100;
#X restore 10 10 pd \$0-data;
#N canvas 73 203 457 184 \$0-array 0;
#X obj 20 21 struct \$0-array float x float y float x1 float y1 float
x2 float y2 array seq-array \$0-connector-template;
#X text 18 109 Extra line to connect ends;
#X obj 20 133 filledpolygon -x 1 444 2 x1 y1 x2 y2;
#X obj 20 64 plot seq-array 444 2 0 0 1;
#X restore 616 56 pd \$0-array;
#N canvas 42 572 451 141 \$0-playhead-template 0;
#X obj 10 12 struct \$0-playhead-template float x float y;
#X obj 11 69 r \$0-show-coordinates;
#X obj 201 103 drawnumber y 0 -20 0 y:;
#X obj 11 103 drawnumber x 0 -10 0 x:;
#X obj 10 40 filledpolygon -x 999 444 0 -5 0 0 5 5 0 0 -5;
#X connect 1 0 2 0;
#X connect 1 0 3 0;
#X restore 616 75 pd \$0-playhead-template;
#X obj 241 276 bng 20 250 50 0 \$0-reset-s \$0-reset-r Reset -40 10
0 12 -262144 -1 -1;
#X obj 11 305 cnv 15 254 20 empty empty empty 20 12 0 14 -162280 -66577
0;
#X text 14 306 X;
#X text 135 306 Y;
#X text 226 305 Data, f 5;
#X obj 371 153 t f b;
#X obj 280 22 inlet speed;
#X obj 280 172 t f;
#X obj 514 66 r \$0-reset-s;
#X obj 371 266 unpack f f f f f;
#X obj 339 239 t b a;
#X obj 323 273 f \$0;
#X msg 323 297 id \$1;
#X msg 296 143 5;
#X connect 1 0 4 1;
#X connect 1 1 3 1;
#X connect 2 0 29 0;
#X connect 4 0 13 0;
#X connect 7 0 6 0;
#X connect 8 0 29 0;
#X connect 8 1 5 0;
#X connect 9 0 11 0;
#X connect 10 0 12 0;
#X connect 13 0 46 0;
#X connect 13 1 3 0;
#X connect 15 0 14 0;
#X connect 16 0 18 0;
#X connect 17 0 19 0;
#X connect 18 0 14 0;
#X connect 19 0 14 0;
#X connect 24 0 25 0;
#X connect 26 0 27 0;
#X connect 28 0 41 0;
#X connect 29 0 28 0;
#X connect 29 1 1 0;
#X connect 30 0 31 0;
#X connect 31 0 24 0;
#X connect 41 0 4 0;
#X connect 41 1 49 0;
#X connect 42 0 43 0;
#X connect 43 0 26 0;
#X connect 44 0 8 0;
#X connect 45 0 15 0;
#X connect 45 1 16 0;
#X connect 45 2 16 1;
#X connect 45 3 17 0;
#X connect 45 4 17 1;
#X connect 46 0 47 0;
#X connect 46 1 45 0;
#X connect 47 0 48 0;
#X connect 48 0 14 0;
#X connect 49 0 43 0;
#X coords 0 0 256 334 256 316 2 10 10;
